<?xml version="1.0" standalone="no"?>
<!DOCTYPE svg PUBLIC "-//W3C//DTD SVG 20010904//EN"
 "http://www.w3.org/TR/2001/REC-SVG-20010904/DTD/svg10.dtd">
<svg version="1.0" xmlns="http://www.w3.org/2000/svg"
 width="1080.000000pt" height="1080.000000pt" viewBox="0 0 1080.000000 1080.000000"
 preserveAspectRatio="xMidYMid meet">
<metadata>
Created by potrace 1.14, written by Peter Selinger 2001-2017
</metadata>
<g transform="translate(0.000000,1080.000000) scale(0.100000,-0.100000)"
fill="#000000" stroke="none">
<path d="M3775 6672 c29 -283 238 -549 538 -687 81 -37 245 -91 482 -160 237
-68 463 -143 523 -173 59 -30 129 -84 156 -120 16 -21 13 -20 -24 7 -50 36
-164 74 -270 90 -41 6 -172 16 -290 21 -316 14 -474 56 -599 157 l-44 37 44
-84 c31 -60 65 -106 124 -165 95 -97 173 -151 309 -215 117 -55 194 -81 436
-144 489 -127 670 -208 762 -341 20 -29 19 -28 -18 6 -119 109 -245 144 -574
160 -317 15 -481 45 -561 105 -27 20 -35 22 -37 10 -11 -53 98 -173 224 -248
152 -90 324 -156 719 -279 390 -121 588 -209 693 -308 89 -84 94 -169 15 -281
-27 -39 64 46 127 118 210 240 253 536 119 805 -17 34 -65 112 -105 173 -200
301 -246 549 -132 706 10 14 7 24 -20 62 -31 43 -63 116 -61 140 0 6 7 -6 14
-27 44 -120 170 -212 333 -244 71 -14 80 -19 107 -54 28 -37 31 -39 87 -39 93
0 158 46 158 111 0 12 -32 71 -70 130 -71 108 -71 109 -97 243 l-26 134 -95
127 -95 127 48 43 c29 24 44 44 38 48 -50 31 -326 32 -437 1 -160 -43 -291
-148 -416 -334 -64 -96 -190 -343 -190 -375 0 -9 15 -44 34 -78 38 -69 66
-155 66 -201 0 -25 -5 -17 -23 34 -63 186 -230 326 -487 409 -107 34 -191 51
-395 82 -543 80 -894 240 -1061 482 l-36 52 7 -63z"/>
</g>
</svg>
